<?xml version="1.0" encoding="iso-8859-1"?>
<!-- Generator: Adobe Illustrator 19.0.0, SVG Export Plug-In . SVG Version: 6.00 Build 0)  -->
<svg version="1.1" id="Layer_1" xmlns="http://www.w3.org/2000/svg" xmlns:xlink="http://www.w3.org/1999/xlink" x="0px" y="0px"
	 viewBox="0 0 488 488" style="enable-background:new 0 0 488 488;" xml:space="preserve">
<g>
	<path style="fill:#EF3388;" d="M64,90.4c-2.4,0-4.8-0.8-6.4-2.4c-3.2-3.2-3.2-8.8,0-12c6.4-6.4,13.6-12.8,20-18.4
		c4-3.2,9.6-2.4,12,1.6s2.4,9.6-1.6,12C81.6,76.8,75.2,82.4,68.8,88C68.8,89.6,66.4,90.4,64,90.4z"/>
	<path style="fill:#EF3388;" d="M237.6,488c-4.8,0-8.8-4-8.8-8.8s3.2-8.8,8.8-8.8c17.6-0.8,35.2-3.2,52-8c4.8-1.6,9.6,1.6,10.4,6.4
		c1.6,4.8-1.6,9.6-6.4,10.4C276,484,256.8,487.2,237.6,488L237.6,488z M182.4,483.2c-0.8,0-0.8,0-1.6,0c-18.4-4-36.8-9.6-54.4-17.6
		c-4-2.4-6.4-7.2-4-12c2.4-4,7.2-6.4,12-4c16,7.2,32.8,12.8,50.4,16.8c4.8,0.8,8,5.6,7.2,10.4C190.4,480.8,187.2,483.2,182.4,483.2z
		 M342.4,458.4c-3.2,0-6.4-1.6-8-4.8c-2.4-4-0.8-9.6,3.2-12c15.2-8.8,29.6-19.2,42.4-31.2c3.2-3.2,8.8-3.2,12,0.8
		c3.2,3.2,3.2,8.8-0.8,12c-14.4,12.8-29.6,24-46.4,33.6C345.6,458.4,344,458.4,342.4,458.4z M422.4,384.8c-1.6,0-3.2-0.8-4.8-1.6
		c-4-2.4-4.8-8-2.4-12c9.6-14.4,17.6-30.4,24-47.2c1.6-4.8,6.4-7.2,11.2-4.8c4.8,1.6,7.2,6.4,4.8,11.2
		c-6.4,17.6-15.2,35.2-25.6,50.4C428,383.2,425.6,384.8,422.4,384.8z M460,282.4h-0.8c-4.8-0.8-8-4.8-8-9.6
		c0.8-8.8,1.6-17.6,1.6-26.4c0-8.8-0.8-17.6-1.6-26.4c-0.8-4.8,3.2-8.8,8-9.6s8.8,3.2,9.6,8c0.8,9.6,1.6,19.2,1.6,28.8
		c0,9.6-0.8,19.2-1.6,28C468.8,279.2,464.8,282.4,460,282.4z M447.2,173.6c-3.2,0-7.2-2.4-8-5.6c-6.4-16.8-14.4-32-24-47.2
		c-2.4-4-1.6-9.6,2.4-12s9.6-1.6,12,2.4c10.4,16,19.2,32.8,25.6,50.4c1.6,4.8-0.8,9.6-4.8,11.2C449.6,173.6,448.8,173.6,447.2,173.6
		z M386.4,83.2c-2.4,0-4-0.8-5.6-2.4c-12.8-12-27.2-22.4-42.4-31.2c-4-2.4-5.6-8-3.2-12s8-5.6,12-3.2c16.8,9.6,32,20.8,46.4,33.6
		c3.2,3.2,4,8.8,0.8,12C391.2,82.4,388.8,83.2,386.4,83.2z M130.4,44c-3.2,0-6.4-1.6-8-4.8c-2.4-4,0-9.6,4-12
		c17.6-8,35.2-14.4,54.4-17.6c4.8-0.8,9.6,2.4,10.4,7.2c0.8,4.8-2.4,9.6-7.2,10.4c-17.6,3.2-34.4,8.8-50.4,16.8
		C132.8,43.2,131.2,44,130.4,44z M291.2,30.4c-0.8,0-1.6,0-2.4,0c-16.8-4.8-34.4-7.2-52-8c-4.8,0-8.8-4-8.8-8.8s4.8-8.8,8.8-8.8
		c19.2,0.8,37.6,3.2,56,8.8c4.8,1.6,7.2,6.4,6.4,10.4S295.2,30.4,291.2,30.4z"/>
	<path style="fill:#EF3388;" d="M83.2,437.6c-1.6,0-4-0.8-5.6-1.6c-7.2-5.6-13.6-12-20-18.4c-3.2-3.2-3.2-8.8,0-12s8.8-3.2,12,0
		c5.6,5.6,12,12,19.2,16.8c4,3.2,4,8.8,1.6,12C88.8,436,86.4,437.6,83.2,437.6z"/>
	<path style="fill:#EF3388;" d="M393.6,424c-3.2,0-6.4-1.6-9.6-4c-4.8-4.8-4.8-13.6,0-18.4c41.6-41.6,64.8-96.8,64.8-155.2
		S425.6,132,384,90.4s-96.8-64.8-155.2-64.8S115.2,48.8,73.6,90.4c-4.8,4.8-13.6,4.8-18.4,0s-4.8-13.6,0-18.4
		c46.4-46.4,108-72,174.4-72c65.6,0,128,25.6,174.4,72s72,108,72,174.4s-25.6,127.2-72,174.4C400,423.2,396.8,424,393.6,424z"/>
</g>
<polygon style="fill:#1DBDCE;" points="44,108 44,68 12,68 12,140 84,140 84,108 "/>
<polyline style="fill:#1FA3CC;" points="12,140 84,140 84,108 44,108 "/>
<circle style="fill:#1DBDCE;" cx="228.8" cy="246.4" r="58.4"/>
<path style="fill:#1FA3CC;" d="M228.8,188c32,0,58.4,26.4,58.4,58.4s-26.4,58.4-58.4,58.4"/>
<g>
</g>
<g>
</g>
<g>
</g>
<g>
</g>
<g>
</g>
<g>
</g>
<g>
</g>
<g>
</g>
<g>
</g>
<g>
</g>
<g>
</g>
<g>
</g>
<g>
</g>
<g>
</g>
<g>
</g>
</svg>
