<svg xmlns="http://www.w3.org/2000/svg" width="18" height="18" viewBox="0 0 18 18"><path d="M15 8.25H5.87l4.19-4.19L9 3 3 9l6 6 1.06-1.06-4.19-4.19H15v-1.5z"/></svg><svg xmlns="http://www.w3.org/2000/svg" width="18" height="18" viewBox="0 0 18 18"><path d="M15 8.25H5.87l4.19-4.19L9 3 3 9l6 6 1.06-1.06-4.19-4.19H15v-1.5z"/></svg><svg xmlns="http://www.w3.org/2000/svg" width="24" height="24" viewBox="0 0 24 24">
    <path d="M19 6.41L17.59 5 12 10.59 6.41 5 5 6.41 10.59 12 5 17.59 6.41 19 12 13.41 17.59 19 19 17.59 13.41 12z" fill="white"/>
    <path d="M0 0h24v24H0z" fill="none"/>
</svg>
