<?xml version="1.0" encoding="UTF-8"?>
<svg xmlns="http://www.w3.org/2000/svg" xmlns:xlink="http://www.w3.org/1999/xlink" width="48pt" height="48pt" viewBox="0 0 48 48" version="1.1">
<g id="surface1062431">
<path style=" stroke:none;fill-rule:nonzero;fill:rgb(18.039216%,80%,44.313725%);fill-opacity:1;" d="M 24 48 C 10.746094 48 0 37.253906 0 24 C 0 10.746094 10.746094 0 24 0 C 37.253906 0 48 10.746094 48 24 C 48 37.253906 37.253906 48 24 48 Z M 24 48 "/>
<path style=" stroke:none;fill-rule:nonzero;fill:rgb(100%,100%,100%);fill-opacity:1;" d="M 8.679688 39.472656 L 10.835938 31.605469 C 9.507812 29.300781 8.808594 26.691406 8.808594 24.011719 C 8.8125 15.640625 15.625 8.832031 24 8.832031 C 28.0625 8.832031 31.875 10.414062 34.742188 13.28125 C 37.609375 16.152344 39.1875 19.96875 39.1875 24.027344 C 39.183594 32.398438 32.371094 39.210938 24 39.210938 C 23.996094 39.210938 24 39.210938 24 39.210938 L 23.992188 39.210938 C 21.449219 39.207031 18.953125 38.570312 16.734375 37.359375 Z M 8.679688 39.472656 "/>
<path style=" stroke:none;fill-rule:nonzero;fill:rgb(100%,100%,100%);fill-opacity:1;" d="M 8.679688 39.871094 C 8.574219 39.871094 8.472656 39.832031 8.398438 39.753906 C 8.296875 39.652344 8.257812 39.503906 8.296875 39.367188 L 10.40625 31.660156 C 9.097656 29.335938 8.40625 26.695312 8.410156 24.015625 C 8.414062 15.421875 15.40625 8.429688 24 8.429688 C 28.167969 8.433594 32.082031 10.054688 35.023438 13 C 37.96875 15.945312 39.589844 19.863281 39.585938 24.027344 C 39.582031 32.617188 32.589844 39.609375 24 39.609375 C 21.445312 39.609375 18.921875 38.980469 16.683594 37.789062 L 8.78125 39.859375 C 8.75 39.867188 8.714844 39.871094 8.679688 39.871094 Z M 8.679688 39.871094 "/>
<path style=" stroke:none;fill-rule:nonzero;fill:rgb(81.176471%,84.705882%,86.27451%);fill-opacity:1;" d="M 24 8.832031 C 28.0625 8.832031 31.875 10.414062 34.742188 13.28125 C 37.609375 16.152344 39.1875 19.96875 39.1875 24.027344 C 39.183594 32.398438 32.371094 39.210938 24 39.210938 L 23.992188 39.210938 C 21.449219 39.207031 18.953125 38.570312 16.734375 37.359375 L 8.679688 39.472656 L 10.835938 31.605469 C 9.507812 29.300781 8.808594 26.691406 8.808594 24.011719 C 8.8125 15.640625 15.625 8.832031 24 8.832031 M 24 39.210938 L 24 39.210938 M 24 39.210938 L 24 39.210938 M 24 8.03125 C 15.183594 8.03125 8.011719 15.199219 8.007812 24.011719 C 8.007812 26.707031 8.6875 29.363281 9.976562 31.710938 L 7.910156 39.261719 C 7.835938 39.539062 7.910156 39.832031 8.113281 40.035156 C 8.265625 40.191406 8.46875 40.273438 8.679688 40.273438 C 8.75 40.273438 8.816406 40.265625 8.882812 40.246094 L 16.632812 38.214844 C 18.894531 39.390625 21.433594 40.007812 23.992188 40.011719 C 32.8125 40.011719 39.984375 32.839844 39.988281 24.027344 C 39.988281 19.753906 38.328125 15.738281 35.308594 12.71875 C 32.289062 9.695312 28.273438 8.03125 24 8.03125 Z M 24 8.03125 "/>
<path style=" stroke:none;fill-rule:nonzero;fill:rgb(25.098039%,76.470588%,31.764706%);fill-opacity:1;" d="M 32.925781 15.097656 C 30.542969 12.710938 27.375 11.394531 24.003906 11.394531 C 17.039062 11.394531 11.375 17.054688 11.371094 24.015625 C 11.371094 26.398438 12.039062 28.722656 13.304688 30.730469 L 13.605469 31.207031 L 12.328125 35.867188 L 17.105469 34.613281 L 17.566406 34.886719 C 19.503906 36.035156 21.726562 36.644531 23.992188 36.644531 L 24 36.644531 C 30.957031 36.644531 36.621094 30.984375 36.621094 24.023438 C 36.621094 20.652344 35.3125 17.480469 32.925781 15.097656 Z M 32.925781 15.097656 "/>
<path style=" stroke:none;fill-rule:evenodd;fill:rgb(100%,100%,100%);fill-opacity:1;" d="M 20.203125 17.667969 C 19.917969 17.035156 19.617188 17.023438 19.347656 17.011719 C 19.125 17 18.871094 17 18.621094 17 C 18.367188 17 17.957031 17.097656 17.609375 17.476562 C 17.257812 17.855469 16.277344 18.773438 16.277344 20.640625 C 16.277344 22.507812 17.640625 24.3125 17.828125 24.566406 C 18.019531 24.820312 20.453125 28.773438 24.3125 30.296875 C 27.515625 31.558594 28.171875 31.308594 28.867188 31.246094 C 29.5625 31.179688 31.113281 30.328125 31.425781 29.441406 C 31.742188 28.554688 31.742188 27.796875 31.648438 27.636719 C 31.554688 27.476562 31.300781 27.382812 30.921875 27.195312 C 30.542969 27.003906 28.675781 26.085938 28.328125 25.960938 C 27.980469 25.832031 27.726562 25.769531 27.472656 26.148438 C 27.222656 26.527344 26.492188 27.382812 26.273438 27.636719 C 26.050781 27.890625 25.828125 27.921875 25.449219 27.730469 C 25.070312 27.542969 23.847656 27.140625 22.398438 25.847656 C 21.269531 24.84375 20.507812 23.601562 20.285156 23.222656 C 20.066406 22.839844 20.261719 22.636719 20.453125 22.445312 C 20.625 22.277344 20.832031 22.003906 21.023438 21.78125 C 21.210938 21.558594 21.277344 21.402344 21.402344 21.148438 C 21.527344 20.894531 21.464844 20.671875 21.371094 20.484375 C 21.277344 20.292969 20.539062 18.417969 20.203125 17.667969 Z M 20.203125 17.667969 "/>
</g>
</svg>
