<?xml version="1.0" encoding="iso-8859-1"?>
<!-- Generator: Adobe Illustrator 19.0.0, SVG Export Plug-In . SVG Version: 6.00 Build 0)  -->
<svg version="1.1" id="Layer_1" xmlns="http://www.w3.org/2000/svg" xmlns:xlink="http://www.w3.org/1999/xlink" x="0px" y="0px"
	 viewBox="0 0 512 512" style="enable-background:new 0 0 512 512;" xml:space="preserve">
<path style="fill:#7F8499;" d="M486.881,166.212H25.119c-9.446,0-17.102-7.656-17.102-17.102V80.701
	c0-9.446,7.656-17.102,17.102-17.102h461.762c9.446,0,17.102,7.656,17.102,17.102v68.409
	C503.983,158.555,496.327,166.212,486.881,166.212z"/>
<polyline style="fill:#F1F4FB;" points="427.023,114.906 427.023,431.298 392.818,448.4 358.575,431.298 324.332,448.4 
	290.114,431.298 255.924,448.4 221.739,431.298 187.545,448.4 153.35,431.298 119.156,448.4 84.977,431.298 84.977,114.906 "/>
<rect x="84.977" y="114.906" style="fill:#D5DCED;" width="342.046" height="25.653"/>
<path d="M486.881,55.582H25.119C11.268,55.582,0,66.85,0,80.701v68.409c0,13.851,11.268,25.119,25.119,25.119H76.96v257.069
	c0,3.036,1.715,5.812,4.429,7.169l34.179,17.102c2.258,1.13,4.915,1.13,7.173,0.001l30.608-15.309l30.608,15.309
	c2.258,1.129,4.915,1.129,7.172,0l30.608-15.309l30.598,15.309c2.258,1.129,4.915,1.13,7.173,0l30.605-15.309l30.634,15.311
	c1.129,0.563,2.356,0.845,3.584,0.845c1.227,0,2.454-0.282,3.582-0.845l30.661-15.313l30.661,15.313
	c2.256,1.128,4.91,1.127,7.167-0.001l34.205-17.102c2.716-1.357,4.432-4.133,4.432-7.17v-257.07h51.841
	c13.851,0,25.119-11.268,25.119-25.119V80.701C512,66.85,500.732,55.582,486.881,55.582z M392.816,439.439l-30.659-15.312
	c-2.254-1.127-4.909-1.127-7.164,0l-30.66,15.313l-30.637-15.312c-2.256-1.128-4.913-1.128-7.17,0.001l-30.602,15.308
	l-30.598-15.308c-2.258-1.129-4.915-1.13-7.172,0l-30.609,15.309l-30.608-15.309c-2.257-1.129-4.915-1.129-7.172,0l-30.608,15.309
	l-26.163-13.093V122.922h326.013v303.421L392.816,439.439z M495.967,149.11c0,5.01-4.076,9.086-9.086,9.086H435.04v-35.273h17.637
	c4.427,0,8.017-3.589,8.017-8.017s-3.589-8.017-8.017-8.017H59.324c-4.427,0-8.017,3.589-8.017,8.017s3.589,8.017,8.017,8.017H76.96
	v35.273H25.119c-5.01,0-9.086-4.076-9.086-9.086V80.701c0-5.01,4.076-9.086,9.086-9.086h461.762c5.01,0,9.086,4.076,9.086,9.086
	V149.11z"/>
<path d="M144.835,208.434h102.614c4.427,0,8.017-3.589,8.017-8.017c0-4.427-3.589-8.017-8.017-8.017H144.835
	c-4.427,0-8.017,3.589-8.017,8.017C136.818,204.844,140.408,208.434,144.835,208.434z"/>
<path d="M144.835,165.678h171.023c4.427,0,8.017-3.589,8.017-8.017s-3.589-8.017-8.017-8.017H144.835
	c-4.427,0-8.017,3.589-8.017,8.017S140.408,165.678,144.835,165.678z"/>
<path d="M367.165,192.4H332.96c-4.427,0-8.017,3.589-8.017,8.017c0,4.427,3.589,8.017,8.017,8.017h34.205
	c4.427,0,8.017-3.589,8.017-8.017C375.182,195.99,371.592,192.4,367.165,192.4z"/>
<path d="M367.165,235.156H332.96c-4.427,0-8.017,3.589-8.017,8.017s3.589,8.017,8.017,8.017h34.205c4.427,0,8.017-3.589,8.017-8.017
	S371.592,235.156,367.165,235.156z"/>
<path d="M281.653,208.434h17.102c4.427,0,8.017-3.589,8.017-8.017c0-4.427-3.589-8.017-8.017-8.017h-17.102
	c-4.427,0-8.017,3.589-8.017,8.017C273.637,204.844,277.226,208.434,281.653,208.434z"/>
<path d="M281.653,251.189h17.102c4.427,0,8.017-3.589,8.017-8.017s-3.589-8.017-8.017-8.017h-17.102
	c-4.427,0-8.017,3.589-8.017,8.017S277.226,251.189,281.653,251.189z"/>
<path d="M144.835,251.189h102.614c4.427,0,8.017-3.589,8.017-8.017s-3.589-8.017-8.017-8.017H144.835
	c-4.427,0-8.017,3.589-8.017,8.017S140.408,251.189,144.835,251.189z"/>
<path d="M161.937,277.912h-17.102c-4.427,0-8.017,3.589-8.017,8.017c0,4.427,3.589,8.017,8.017,8.017h17.102
	c4.427,0,8.017-3.589,8.017-8.017C169.954,281.501,166.365,277.912,161.937,277.912z"/>
<path d="M196.142,277.912c-4.427,0-8.017,3.589-8.017,8.017c0,4.427,3.589,8.017,8.017,8.017h17.102
	c4.427,0,8.017-3.589,8.017-8.017c0-4.427-3.589-8.017-8.017-8.017H196.142z"/>
<path d="M298.756,293.945h17.102c4.427,0,8.017-3.589,8.017-8.017c0-4.427-3.589-8.017-8.017-8.017h-17.102
	c-4.427,0-8.017,3.589-8.017,8.017C290.739,290.356,294.328,293.945,298.756,293.945z"/>
<path d="M247.449,277.912c-4.427,0-8.017,3.589-8.017,8.017c0,4.427,3.589,8.017,8.017,8.017h17.102
	c4.427,0,8.017-3.589,8.017-8.017c0-4.427-3.589-8.017-8.017-8.017H247.449z"/>
<path d="M367.165,277.912h-17.102c-4.427,0-8.017,3.589-8.017,8.017c0,4.427,3.589,8.017,8.017,8.017h17.102
	c4.427,0,8.017-3.589,8.017-8.017C375.182,281.501,371.592,277.912,367.165,277.912z"/>
<path d="M332.96,320.668H179.04c-4.427,0-8.017,3.589-8.017,8.017c0,4.427,3.589,8.017,8.017,8.017H332.96
	c4.427,0,8.017-3.589,8.017-8.017C340.977,324.257,337.388,320.668,332.96,320.668z"/>
<path d="M298.756,363.423h-85.511c-4.427,0-8.017,3.589-8.017,8.017c0,4.427,3.589,8.017,8.017,8.017h85.511
	c4.427,0,8.017-3.589,8.017-8.017C306.772,367.013,303.183,363.423,298.756,363.423z"/>
<g>
</g>
<g>
</g>
<g>
</g>
<g>
</g>
<g>
</g>
<g>
</g>
<g>
</g>
<g>
</g>
<g>
</g>
<g>
</g>
<g>
</g>
<g>
</g>
<g>
</g>
<g>
</g>
<g>
</g>
</svg>
