<?xml version="1.0" encoding="iso-8859-1"?>
<!-- Generator: Adobe Illustrator 19.0.0, SVG Export Plug-In . SVG Version: 6.00 Build 0)  -->
<svg version="1.1" id="Layer_1" xmlns="http://www.w3.org/2000/svg" xmlns:xlink="http://www.w3.org/1999/xlink" x="0px" y="0px"
	 viewBox="0 0 512 512" style="enable-background:new 0 0 512 512;" xml:space="preserve">
<g>
	<g>
		<path fill="transparent" d="M401.752,216.38c-19.692,0-35.712,16.02-35.712,35.712c0,19.688,16.02,35.704,35.712,35.704
			c19.688,0,35.708-16.016,35.708-35.704C437.46,232.4,421.44,216.38,401.752,216.38z"/>
	</g>
</g>
<g>
	<g>
		<path fill="white" d="M497.856,126H488v-9.408C488,94.168,475.548,82,453.116,82H436l0.064-28h-2.268h-16c-4.416,0-13.792,0-13.792,0v28H84
			V67.872c0-4.42-3.584-8-8-8s-8,3.58-8,8V82h-5.28C40.288,82,16,94.168,16,116.592V223.66C16,246.088,40.288,270,62.72,270H60
			v30.168c0,4.42-0.124,13.956-0.124,13.956L68,314v38.396c0,4.416,3.584,8,8,8s8-3.584,8-8V314h7.752c0,0,0.248-9.412,0.248-13.832
			V270h9.116C123.548,270,136,246.088,136,223.66V214h168v164H25.96C14.932,378,0,381.06,0,392.088v55.916C0,458,0,458,9.96,458
			h498.164c0,0-0.124-7.784-0.124-9.996v-55.916c0-11.032-3.116-14.088-14.144-14.088H488V214l12.516-0.32
			C512,213.564,512,209.812,512,187.84v-47.544C512,129.268,508.884,126,497.856,126z M388,346h-24.064c0,0,0.064-7.792,0.064-9.996
			l-0.064-5.94c0,0,7.48-0.064,9.688-0.064H388V346z M428,336.004c0,2.204,0,9.996,0,9.996h-24v-16h24V336.004z M401.752,304.128
			c-28.696,0-52.044-23.344-52.044-52.04c0-28.7,23.348-52.048,52.044-52.048s52.04,23.348,52.04,52.048
			C453.792,280.784,430.448,304.128,401.752,304.128z"/>
	</g>
</g>
<g>
</g>
<g>
</g>
<g>
</g>
<g>
</g>
<g>
</g>
<g>
</g>
<g>
</g>
<g>
</g>
<g>
</g>
<g>
</g>
<g>
</g>
<g>
</g>
<g>
</g>
<g>
</g>
<g>
</g>
</svg>
